<svg xml:space="preserve" style="max-height: 500px" viewBox="0 10.75 95.75 78.5" y="0px" x="0px" version="1.1" xmlns:xlink="http://www.w3.org/1999/xlink" xmlns="http://www.w3.org/2000/svg" width="95.75" height="78.5"><style type="text/css">
	.st0{fill-rule:evenodd;clip-rule:evenodd;}
</style><path d="M65.4401703,36.5425987c-0.5838928,0.4671173-0.2335587,0.2335548-1.868454,0.1167755  c-8.1744804-0.583889-22.7717743,7.0067024-29.7784729,11.561058c-0.4671135,0.3503342-1.284565,0.8174477-1.7516747,1.0510063  c-1.5181198-2.6859055-1.4013405-5.8389206-0.2335587-8.6416016c0.1167793-0.3503342,0.4671135-0.8174515,0.4671135-1.0510025  c-0.3503342-0.1167831-0.8174477-0.4671135-1.1677818-0.7006683l-1.2845631-0.8174477  c-0.3503342,0.3503342-0.9342251,1.9852295-1.1677818,2.6858978c-0.3503342,1.0510101-0.5838928,1.9852333-0.5838928,3.153019  c-0.1167774,1.0510025-0.1167774,2.452343,0.1167793,3.6201248c0.4671135,2.1020126,1.1677837,2.8026772,1.2845612,3.5033493  c-0.934227,0.5838928-1.9852314,1.5181198-2.9194584,2.1020088l-2.9194584,2.2187881  c-1.5181179-2.5691223-2.9194584-7.1234741-3.5033493-10.2764893c-0.5838928-2.3355675-0.7006702-3.2697906-2.2187881-4.4375801  c-2.6859016-1.9852257-6.539587-0.9342232-7.7073708,2.4523468c-0.5838909,1.6348953,0.1167793,3.3865738,0.5838919,5.3718033  c0.4671135,1.9852333,0.8174486,3.9704628,1.2845621,5.9556961c0.2335567,0.9342232,0.7006702,1.9852295-0.2335567,2.3355637  c-1.0510054,0.350338-1.4013405,0.4671173-2.1020098,1.284565c-0.934227,1.1677818-1.0510054,2.5691223-0.3503351,4.5543518  c0.5838919,1.6348991,1.2845621,3.38657,2.1020098,4.7879143c0.3503351,0.4671097,0.2335567,0.5838928,0,1.0510025  c-0.4671125,0.8174515-0.934227,2.1020126-1.1677828,3.0362396c-0.2335577,1.9852295,0.4671125,3.1530151,1.5181179,4.5543518  c3.6201286,4.7879105,8.7583752,8.1744919,14.4805126,9.4590454c7.0067005,1.5181198,13.663065,1.0510101,20.5529842-1.5181198  c8.0577049-2.9194565,16.2321892-9.3422623,20.202652-16.465744c1.1677856-2.2187881,1.2845612-2.102005,2.3355637-4.7879066  c2.5691299-5.9556999,3.1530151-13.3127327,0.8174515-19.618763c-0.3503342-0.8174477-0.7006683-1.5181198-1.0510025-2.3355675  c-0.4671173-0.8174477-0.934227-1.4013367-1.2845612-2.102005c0.7006683,0,1.167778,0.3503265,2.4523468,0.2335548  c1.2845612-0.1167793,1.7516708-0.4671135,2.4523392-1.0510025l18.4509811-14.8308563  c1.4013367-1.0510025,2.4523468-1.7516708,2.6858978-3.5033474c0.5838928-3.1530151-2.802681-7.0066967-6.5395889-5.4885798  c-0.8174515,0.3503332-3.036232,2.2187929-3.8536835,2.80268c-2.5691223,1.9852314-5.0214615,3.8536816-7.5905914,5.838913  c-2.4523468,1.9852314-5.0214615,3.7369099-7.5905914,5.7221413c-1.7516708,1.4013424-3.8536835,2.3355656-3.7369003,5.4885864  C64.6227264,35.3748169,65.0898361,35.7251511,65.4401703,36.5425987L65.4401703,36.5425987z M17.9113903,73.7948837  c-0.2335567-0.2335587-3.1530151-1.7516708-4.0872421-3.3865738c-0.2335567,0.2335587-0.2335567,0.3503342-0.3503342,0.8174515  c-0.3503351,0.934227-0.4671144,1.9852295,0.5838909,2.3355637C15.1087103,74.0284424,16.6268291,74.0284424,17.9113903,73.7948837  L17.9113903,73.7948837z M67.6589584,34.2070274c0.2335587-0.3503265,1.2845688-1.6348991,2.4523468-0.7006683  c0.3503342,0.2335625,0.5838852,0.7006683,0.5838852,1.284565c-0.1167755,0.5838928-0.3503265,0.7006645-0.5838852,1.1677818  c1.5181198-0.1167831,2.802681-2.4523468,0.9342194-3.9704628C69.6441956,30.8204594,67.1918488,32.2218056,67.6589584,34.2070274  L67.6589584,34.2070274z M57.616024,52.3076744c0.4671097-0.350338,1.1677818-1.0510063,1.6348953-1.5181198  c0.4671135-0.4671173,1.0510025-1.0510063,1.5181198-1.518116c0.3503342-0.4671173,0.3503342-1.5181236,0.3503342-2.3355713  s0-1.8684502-0.7006683-2.2187881c-0.8174515-0.5838928-1.6348991-0.3503342-2.1020126,0.4671135  c-0.3503342,0.5838928-0.1167793,1.6348991-0.1167793,2.4523468C58.199913,50.0888863,57.8495827,50.5559959,57.616024,52.3076744  L57.616024,52.3076744z M72.2133102,29.1855621c0.2335587,0.3503342,0.4671173,0.3503342,0.8174515,0.5838947  c0.8174438,0.7006683,1.4013443,1.5181179,1.7516785,2.6858997c0.233551-0.1167793,0.8174438-0.5838947,1.0510025-0.8174477  c4.7879105-3.8536911,9.6925964-7.8241539,14.3637314-11.5610542c0.934227-0.7006683,1.2845612-1.4013443,0.3503418-2.5691261  c-0.5838928-0.8174496-1.2845612-1.2845554-2.4523468-0.4671154C85.6428223,18.909071,72.3300934,28.9520092,72.2133102,29.1855621  L72.2133102,29.1855621z M34.4939117,67.9559708c-1.0510025-0.4671173-1.7516747-0.4671173-3.2697926-1.1677856  c-8.408041-3.5033493-12.7288361-13.5462837-14.2469559-22.1878815c-0.4671135-2.8026772-3.0362368-2.2187881-3.736907-1.1677856  c-0.4671125,0.8174515-0.2335567,1.5181198,0,2.6859016c0.3503351,1.5181198,1.9852324,8.5248184,2.1020098,9.4590454  c0.2335577,1.6348991-0.8174477,3.2697945-2.3355665,3.8536873c-1.0510044,0.4671135-1.4013395,0.3503342-0.8174486,2.102005  c1.2845631,3.9704666,3.6201286,7.8241501,7.2402573,9.6926041c1.4013386,0.7006683,2.9194584,0.934227,4.9046898,0.8174515  c1.9852314-0.1167831,7.4738121-2.802681,9.6926003-3.8536911L34.4939117,67.9559708z M33.7932434,51.7237778  c0.3503342,0.5838966,1.4013405,1.284565,1.7516747,1.6348991c-0.1167755,0.2335587-1.6348991,2.2187881-1.7516747,2.3355675  c-0.934227-0.5838928-2.2187881-1.9852295-2.5691242-2.2187881c-0.5838909,0.2335587-5.8389149,4.0872383-6.0724735,4.4375725  c1.0510063,1.6348991,3.2697926,3.7369118,4.7879124,4.9046936c1.6348972,1.1677818,4.2040195,2.1020088,6.189249,2.3355675  c0.5838928,0.1167755,1.1677856,0.1167755,1.8684578,0.2335587c0.8174477,0,1.1677818,0.1167755,1.8684502-0.3503342  c3.6201286-2.1020164,5.8389168-3.6201324,9.2254868-5.8389206c0.9342308-0.7006683,1.868454-1.4013405,2.802681-2.1020088  c0.9342308-0.7006721,1.4013405-1.7516785,1.868454-2.6859016c0.934227-1.9852333,1.518116-4.320797,1.518116-6.8899231  c-0.1167755-1.8684502-0.3503342-2.2187843,0.350338-3.6201248c1.4013405-3.2697983,7.3570366-3.6201324,8.2912598,1.4013405  c0.4671173-0.350338,1.7516785-2.802681,1.868454-3.8536911c0.1167755-1.9852333-2.3355675-1.9852333-3.8536835-1.8684502  C53.5287819,40.045948,40.3328285,47.4029808,33.7932434,51.7237778L33.7932434,51.7237778z M16.5100498,76.8311234  c0.2335567,0.3503342,0.8174496,0.8174438,1.1677837,1.0510025c0.9342251,0.934227,1.2845612,1.0510101,2.3355656,1.7516785  c0.2335567,0.1167755,0.4671154,0.3503342,0.7006702,0.4671097c1.7516747,1.0510025,4.2040195,1.9852371,6.1892529,2.4523468  c9.4590435,2.4523392,19.3852024-0.2335587,27.3261318-5.7221375c1.518116-1.0510025,3.38657-2.4523468,4.5543518-3.736908  c1.868454-1.868454,2.3355675-2.3355713,3.9704628-4.3208008l1.518116-2.4523468  c0.2335587-0.3503342,0.4671173-0.7006683,0.700676-1.167778c0.233551-0.3503342,0.4671097-0.934227,0.7006683-1.2845612  c0.8174438-1.4013405,1.7516708-3.8536873,2.102005-5.3718033c1.0510101-3.9704666,1.5181274-8.8751526-0.1167755-13.5462875  c-0.1167755,0.1167793-0.8174438,1.5181198-1.2845612,2.1020088c-0.934227,1.1677856-1.6348953,2.218792-2.6859016,3.3865738  c-5.1382484,5.3718033-10.3932724,9.5758209-16.816082,13.7798424  c-7.1234779,4.6711349-17.1664124,10.0429382-25.8080082,12.0281677  C19.3127289,76.5975723,18.1449471,76.7143402,16.5100498,76.8311234L16.5100498,76.8311234z" class="st0"/><path d="M51.1932144,30.5869064c-1.868454,0.7006683-3.1530151,2.6858978-2.3355675,4.9046822  c0.7006721,1.8684616,2.8026772,3.1530228,5.0214691,2.3355751c1.7516747-0.700676,3.0362358-2.8026886,2.2187881-5.0214729  C55.3972359,31.0540123,53.2952232,29.7694569,51.1932144,30.5869064L51.1932144,30.5869064z M51.8938828,33.0392532  c-1.518116,0.8174477-0.3503342,3.1530113,1.284565,2.2187843C54.4630051,34.5573692,53.4120026,32.2218056,51.8938828,33.0392532  L51.8938828,33.0392532z" class="st0"/><path d="M33.0925751,14.588275c-2.802681,1.0510025-4.6711369,4.2040167-3.5033512,7.4738111  c1.0510044,2.8026791,4.2040195,4.7879105,7.4738102,3.5033474c2.802681-1.0510025,4.6711349-4.2040157,3.5033531-7.4738102  C39.5153809,15.2889433,36.3623657,13.5372648,33.0925751,14.588275L33.0925751,14.588275z M34.1435776,18.4419575  c-2.3355675,1.2845631-0.3503342,4.6711311,1.9852295,3.2697945C38.1140404,20.4271889,36.3623657,17.1573944,34.1435776,18.4419575  L34.1435776,18.4419575z" class="st0"/><path d="M30.6402283,36.4258194l2.6859016,1.7516708c1.6348953-2.2187843,3.7369041-3.2697868,5.9556923-4.0872345  l2.2187881-0.700676c0-0.4671097-0.4671097-2.9194546-0.7006683-3.1530151  c-2.1020088,0.700676-2.5691223,0.5838947-5.255024,1.9852409C33.9100189,33.1560249,31.6912327,34.5573692,30.6402283,36.4258194  L30.6402283,36.4258194z" class="st0"/><polygon points="41.2670555,54.2929039 45.0039635,53.4754562 44.1865158,49.6217728 40.4496078,50.5559959" class="st0"/><polygon points="6.8174486,40.2795029 10.671134,39.4620514 9.8536854,35.7251511 6,36.5425987" class="st0"/><polygon points="25.9690952,31.7546883 29.8227787,30.8204594 28.8885536,27.0835514 25.1516457,27.9009991" class="st0"/><path d="M21.8818531,33.3895798c-1.868454,0.700676-3.1530151,2.6859055-2.3355675,4.9046898  c0.7006702,1.8684578,2.802681,3.1530151,5.0214691,2.3355675c1.7516747-0.7006683,3.0362377-2.8026733,2.2187881-5.0214653  C26.0858727,33.8567009,23.9838638,32.5721283,21.8818531,33.3895798L21.8818531,33.3895798z M22.5825233,35.8419228  c-1.5181179,0.8174515-0.3503361,3.1530151,1.2845612,2.2187958C25.1516457,37.3600502,24.1006432,35.0244751,22.5825233,35.8419228  L22.5825233,35.8419228z" class="st0"/><rect height="3.8252728" width="3.8252704" class="st0" transform="matrix(0.9769 -0.213697 0.213697 0.9769 -5.838273 3.0769923)" y="26.6306438" x="9.4007788"/><text font-family="'Helvetica Neue', Helvetica, Arial-Unicode, Arial, Sans-serif" font-weight="bold" font-size="5px" fill="#000000" y="115" x="0">Created by Mohammed Morris</text><text font-family="'Helvetica Neue', Helvetica, Arial-Unicode, Arial, Sans-serif" font-weight="bold" font-size="5px" fill="#000000" y="120" x="0">from the Noun Project</text></svg>